Mortal Kombat [BDRip-1080p-Mkv-Ita/Eng/Esp-Ac3-MultiSub][Nautilus-BT]



General
Complete name                    : E:\Mortal Kombat [BDRip-1080p-MultiLang-MultiSub-Chapters][RiP By MaX].mkv
Format                           : Matroska
File size                        : 7.96 GiB
Duration                         : 1h 41mn
Overall bit rate                 : 11.2 Mbps
Encoded date                     : UTC 2011-06-17 10:53:54
Writing application              : mkvmerge v4.8.0 ('I Got The...') built on May 24 2011 03:12:58
Writing library                  : libebml v1.2.0 + libmatroska v1.1.0

Video
ID                               : 1
Format                           : AVC
Format/Info                      : Advanced Video Codec
Format profile                   : High@L4.1
Format settings, CABAC           : Yes
Format settings, ReFrames        : 3 frames
Muxing mode                      : Container profile=Unknown@4.1
Codec ID                         : V_MPEG4/ISO/AVC
Duration                         : 1h 41mn
Bit rate                         : 10.4 Mbps
Width                            : 1 920 pixels
Height                           : 1 080 pixels
Display aspect ratio             : 16:9
Frame rate                       : 23.976 fps
Color space                      : YUV
Chroma subsampling               : 4:2:0
Bit depth                        : 8 bits
Scan type                        : Progressive
Bits/(Pixel*Frame)               : 0.209
Stream size                      : 7.21 GiB (91%)
Title                            : Mortal Kombat [BDRip 1080p][RiP By MaX]
Writing library                  : x264 core 115 r1995 c1e60b9
Encoding settings                : cabac=1 / ref=4 / deblock=1:0:0 / analyse=0x3:0x133 / me=umh / subme=7 / psy=1 / psy_rd=1.00:0.00 / mixed_ref=1 / me_range=32 / chroma_me=1 / trellis=2 / 8x8dct=1 / cqm=0 / deadzone=21,11 / fast_pskip=1 / chroma_qp_offset=-2 / threads=6 / sliced_threads=0 / slices=4 / nr=0 / decimate=1 / interlaced=0 / bluray_compat=1 / constrained_intra=0 / bframes=3 / b_pyramid=1 / b_adapt=2 / b_bias=0 / direct=1 / weightb=1 / open_gop=1 / weightp=1 / keyint=240 / keyint_min=23 / scenecut=40 / intra_refresh=0 / rc_lookahead=40 / rc=2pass / mbtree=1 / bitrate=10383 / ratetol=1.0 / qcomp=0.60 / qpmin=10 / qpmax=51 / qpstep=4 / cplxblur=20.0 / qblur=0.5 / vbv_maxrate=40000 / vbv_bufsize=40000 / nal_hrd=vbr / ip_ratio=1.40 / aq=1:1.00
Language                         : Italian

Audio #1
ID                               : 2
Format                           : AC-3
Format/Info                      : Audio Coding 3
Format profile                   : Dolby Digital
Mode extension                   : CM (complete main)
Codec ID                         : A_AC3
Duration                         : 1h 41mn
Bit rate mode                    : Constant
Bit rate                         : 192 Kbps
Channel(s)                       : 2 channels
Channel positions                : Front: L R
Sampling rate                    : 48.0 KHz
Bit depth                        : 16 bits
Stream size                      : 139 MiB (2%)
Title                            : Ita Ac3 2.0
Language                         : Italian

Audio #2
ID                               : 3
Format                           : AC-3
Format/Info                      : Audio Coding 3
Mode extension                   : CM (complete main)
Codec ID                         : A_AC3
Duration                         : 1h 41mn
Bit rate mode                    : Constant
Bit rate                         : 384 Kbps
Channel(s)                       : 6 channels
Channel positions                : Front: L C R, Side: L R, LFE
Sampling rate                    : 48.0 KHz
Bit depth                        : 16 bits
Stream size                      : 279 MiB (3%)
Title                            : Eng Ac3 5.1

Audio #3
ID                               : 4
Format                           : AC-3
Format/Info                      : Audio Coding 3
Mode extension                   : CM (complete main)
Codec ID                         : A_AC3
Duration                         : 1h 41mn
Bit rate mode                    : Constant
Bit rate                         : 256 Kbps
Channel(s)                       : 6 channels
Channel positions                : Front: L C R, Side: L R, LFE
Sampling rate                    : 48.0 KHz
Bit depth                        : 16 bits
Stream size                      : 186 MiB (2%)
Title                            : Esp Ac3 5.1
Language                         : Spanish

Text #1
ID                               : 5
Format                           : UTF-8
Codec ID                         : S_TEXT/UTF8
Codec ID/Info                    : UTF-8 Plain Text
Title                            : Sub Ita
Language                         : Italian

Text #2
ID                               : 6
Format                           : UTF-8
Codec ID                         : S_TEXT/UTF8
Codec ID/Info                    : UTF-8 Plain Text
Title                            : Sub Eng

Text #3
ID                               : 7
Format                           : UTF-8
Codec ID                         : S_TEXT/UTF8
Codec ID/Info                    : UTF-8 Plain Text
Title                            : Sub Deu
Language                         : German

Text #4
ID                               : 8
Format                           : UTF-8
Codec ID                         : S_TEXT/UTF8
Codec ID/Info                    : UTF-8 Plain Text
Title                            : Sub Esp
Language                         : Spanish

Text #5
ID                               : 9
Format                           : UTF-8
Codec ID                         : S_TEXT/UTF8
Codec ID/Info                    : UTF-8 Plain Text
Title                            : Sub Ned
Language                         : Dutch

Text #6
ID                               : 10
Format                           : VobSub
Codec ID                         : S_VOBSUB
Codec ID/Info                    : The same subtitle format used on DVDs
Title                            : Sub Jap
Language                         : Japanese

Text #7
ID                               : 11
Format                           : VobSub
Codec ID                         : S_VOBSUB
Codec ID/Info                    : The same subtitle format used on DVDs
Title                            : Sub Chi
Language                         : Chinese

Text #8
ID                               : 12
Format                           : UTF-8
Codec ID                         : S_TEXT/UTF8
Codec ID/Info                    : UTF-8 Plain Text
Title                            : Sub Dan
Language                         : Danish

Text #9
ID                               : 13
Format                           : UTF-8
Codec ID                         : S_TEXT/UTF8
Codec ID/Info                    : UTF-8 Plain Text
Title                            : Sub Fin
Language                         : Finnish

Text #10
ID                               : 14
Format                           : VobSub
Codec ID                         : S_VOBSUB
Codec ID/Info                    : The same subtitle format used on DVDs
Title                            : Sub Gre
Language                         : Greek

Text #11
ID                               : 15
Format                           : VobSub
Codec ID                         : S_VOBSUB
Codec ID/Info                    : The same subtitle format used on DVDs
Title                            : Sub Ebr
Language                         : Hebrew

Text #12
ID                               : 16
Format                           : UTF-8
Codec ID                         : S_TEXT/UTF8
Codec ID/Info                    : UTF-8 Plain Text
Title                            : Sub Nor
Language                         : Norwegian

Text #13
ID                               : 17
Format                           : UTF-8
Codec ID                         : S_TEXT/UTF8
Codec ID/Info                    : UTF-8 Plain Text
Title                            : Sub Por
Language                         : Portuguese

Text #14
ID                               : 18
Format                           : UTF-8
Codec ID                         : S_TEXT/UTF8
Codec ID/Info                    : UTF-8 Plain Text
Title                            : Sub Swe
Language                         : Swedish

Text #15
ID                               : 19
Format                           : VobSub
Codec ID                         : S_VOBSUB
Codec ID/Info                    : The same subtitle format used on DVDs
Title                            : Sub Tha
Language                         : Thai

Text #16
ID                               : 20
Format                           : VobSub
Codec ID                         : S_VOBSUB
Codec ID/Info                    : The same subtitle format used on DVDs
Title                            : Sub Tur
Language                         : Turkish

Menu
00:00:00.000                     : :Chapter  1
00:00:50.133                     : :Chapter  2
00:02:39.284                     : :Chapter  3
00:04:50.415                     : :Chapter  4
00:07:56.893                     : :Chapter  5
00:12:10.355                     : :Chapter  6
00:15:35.935                     : :Chapter  7
00:18:15.219                     : :Chapter  8
00:21:30.372                     : :Chapter  9
00:25:00.833                     : :Chapter 10
00:29:01.031                     : :Chapter 11
00:36:24.557                     : :Chapter 12
00:39:41.671                     : :Chapter 13
00:42:41.851                     : :Chapter 14
00:45:38.527                     : :Chapter 15
00:50:59.473                     : :Chapter 16
00:52:52.252                     : :Chapter 17
00:56:08.282                     : :Chapter 18
01:00:15.028                     : :Chapter 19
01:05:48.653                     : :Chapter 20
01:09:06.017                     : :Chapter 21
01:10:51.956                     : :Chapter 22
01:17:09.667                     : :Chapter 23
01:20:50.471                     : :Chapter 24
01:23:53.987                     : :Chapter 25
01:30:26.630                     : :Chapter 26
01:31:34.864                     : :Chapter 27